<?xml version="1.0" encoding="UTF-8" standalone="no"?>
<!-- Created with Inkscape (http://www.inkscape.org/) -->

<svg
   width="1920"
   height="1080"
   viewBox="0 0 1920 1080"
   version="1.1"
   id="svg5"
   xmlns="http://www.w3.org/2000/svg"
   xmlns:svg="http://www.w3.org/2000/svg">
  <defs
     id="defs2">
    <rect
       x="1049.7907"
       y="596.04701"
       width="427.52344"
       height="179.33915"
       id="rect17511" />
    <rect
       x="445.83105"
       y="304.40688"
       width="1052.8309"
       height="384.48737"
       id="rect8991" />
    <rect
       x="158.39303"
       y="212.07945"
       width="1432.2986"
       height="613.90995"
       id="rect4563" />
  </defs>
  <g
     id="layer1">
    <path
       style="fill:#000000"
       id="path879"
       d="m 28.394207,214.23091 c 1.225322,-24.12409 0.975252,-48.26004 0.523063,-72.39903 -0.314037,-16.61593 -0.972985,-33.22187 -1.093446,-49.84089 0.03301,-9.783768 0.139092,-19.567137 0.205575,-29.350779 0.09213,-6.620719 0.07865,-13.241721 0.0046,-19.86245 -0.09648,-7.592525 0.0755,-15.185136 0.01786,-22.777349 0.03582,-7.789912 -0.03479,-15.5790546 -0.07044,-23.3688164 1.133649,-4.9948975 2.631994,-10.5497406 6.531597,-14.1938856 0.870345,-0.81333 3.977331,-2.620371 2.951344,-2.015097 C 23.942408,-11.6002 10.500704,-3.4877191 -2.9811363,4.557115 -1.1739534,4.2494234 0.60725106,3.6238639 2.4404124,3.6340403 10.266725,3.6774867 18.277673,7.2777089 25.75266,9.1023923 35.818034,11.559403 37.397779,11.585523 47.970523,13.288315 67.703631,16.766384 87.758408,15.19813 107.64,16.283842 c 14.14273,1.186725 28.05675,4.061367 41.97143,6.736385 19.80473,3.503503 39.98916,3.95298 60.04776,4.40065 27.55598,0.18212 55.08447,0.07959 82.62943,0.985024 17.38196,0.757001 34.74902,1.709141 52.14361,2.116605 0,0 40.40752,-29.3395401 40.40752,-29.3395401 v 0 C 367.03731,1.4806101 349.25551,1.1110849 331.47197,0.16867635 304.28294,-1.0459851 277.11119,-1.7643092 249.89166,-1.6804179 c -19.7728,-0.3918186 -39.64902,-0.7528659 -59.2039,-3.9973379 -14.01588,-2.5514254 -27.83428,-6.2975962 -42.06802,-7.4262592 -20.03252,-1.380098 -40.26328,1.580699 -60.188439,-2.03186 -9.541276,-1.524754 -12.335647,-1.743687 -21.450181,-4.031367 -10.040567,-2.520108 -19.622656,-6.743864 -29.955914,-8.102403 -26.377272,15.274757 -51.626393,17.9136886 -54.428485,47.025935 -0.03553,7.813621 -0.105876,15.626631 -0.07048,23.4404 -0.05767,7.586543 0.112522,15.173521 0.01108,22.760351 -0.07885,6.624709 -0.107313,13.249883 -0.02002,19.874749 0.07299,9.685337 0.241306,19.3685 0.539267,29.0498 0.352524,16.52958 0.630043,33.0582 1.834527,49.55549 1.056233,24.16028 1.434936,48.42675 -2.192054,72.41921 0,0 45.695162,-22.62538 45.695162,-22.62538 z" />
    <path
       style="fill:#000000"
       id="path891"
       d="m 21.375113,1061.2087 c -0.987033,-23.0256 -1.107445,-46.1015 -0.406701,-69.13603 0.622666,-24.84151 2.239042,-49.64024 3.326374,-74.4615 0.397253,-12.69786 0.755683,-25.39997 0.64656,-38.10466 1.119314,-14.51558 3.797481,-28.88089 5.687473,-43.32034 0.212322,-1.88661 0.424644,-3.77322 0.636966,-5.65984 0,0 -45.40888,22.54259 -45.40888,22.54259 v 0 c -0.178055,1.83657 -0.35611,3.67314 -0.534165,5.50972 -1.674565,14.66236 -4.483672,29.1852 -5.500251,43.90821 -0.146318,12.57937 0.06201,25.16002 -0.242501,37.73843 -0.398354,24.67229 -0.989776,49.34144 -2.403455,73.98052 -0.816343,23.3895 -0.15261,46.8029 -1.299274,70.1852 0,0 45.497854,-23.1823 45.497854,-23.1823 z" />
    <path
       style="fill:#000000"
       id="path893"
       d="m -6.838243,1088.8229 c 18.29028,0.9333 36.433703,3.5181 54.691451,4.9051 18.197821,0.2498 36.441652,-0.3627 54.591382,-1.7277 10.65492,-1.0725 21.25173,-2.6282 31.97137,-2.7666 11.62097,-0.6654 23.27256,0.4325 34.87769,1.0788 15.81847,0.8255 31.55495,2.6882 47.3391,4.0221 15.2646,1.7003 30.57195,1.9437 45.90629,1.6934 0,0 40.1311,-29.3296 40.1311,-29.3296 v 0 c -15.23789,0.6065 -30.45436,0.7524 -45.637,-1.0534 -15.52153,-2.0789 -31.16825,-3.7131 -46.78096,-4.7798 -7.06762,-0.3121 -14.12932,-0.6478 -21.18328,-1.2002 -3.43228,-0.2687 -6.83708,-0.9316 -10.27901,-1.0083 -1.07029,-0.024 -2.12992,0.2187 -3.19488,0.328 -11.13178,1.0238 5.15928,-0.3296 -8.29324,0.2088 -8.19251,0.3279 -16.2928,2.2443 -24.45765,2.8662 -18.02184,2.0694 -36.26834,2.25 -54.387586,2.6143 -17.993994,-1.2381 -35.884728,-3.3294 -53.790385,-5.4418 0,0 -41.504392,29.5907 -41.504392,29.5907 z" />
    <path
       style="fill:#000000"
       id="path895"
       d="m -25.88883,1078.7168 c 13.732443,2.7006 26.76208833,7.7681 39.71316,12.9272 12.093339,4.4579 24.068897,9.3026 35.723254,14.8116 0,0 42.101751,-27.7923 42.101751,-27.7923 v 0 c -11.689025,-5.7241 -23.928077,-10.2271 -36.072762,-14.8833 -12.681466,-5.6243 -25.751096,-10.4691 -39.209844,-13.898 0,0 -42.255559,28.8348 -42.255559,28.8348 z" />
    <path
       style="fill:#000000"
       id="path899"
       d="m 1623.6372,1092.9263 c 34.714,-3.8453 69.6806,-4.2474 104.5669,-4.8378 34.3686,0.3323 68.6911,-0.6396 103.0248,-1.9862 22.3434,-0.2289 44.6578,1.3324 66.9876,0.1148 4.2208,-0.2681 8.4283,-0.6977 12.6364,-1.112 0,0 41.0347,-30.4581 41.0347,-30.4581 v 0 c -4.3601,0.4633 -8.7093,1.0061 -13.0579,1.5683 -22.658,2.3464 -45.3851,1.5293 -68.122,0.9899 -34.9635,1.1046 -69.8702,3.7051 -104.876,3.4582 -33.572,0.4465 -67.2829,-0.1035 -100.7735,2.1015 0,0 -41.421,30.1614 -41.421,30.1614 z" />
    <path
       style="fill:#000000"
       id="path901"
       d="m 1890.4608,911.41068 c 0.6227,14.98812 0.5425,29.99436 0.5969,44.99224 0.1308,16.06903 -0.1483,32.13549 -0.2678,48.20318 -0.2761,9.4773 0.2274,18.9866 -0.67,28.4306 -1.2729,13.7785 -2.1178,27.5904 -2.8861,41.4046 -0.4951,7.8881 -0.6068,15.791 -0.6799,23.6918 -0.031,3.7553 -0.022,1.8946 -0.027,5.582 0,0 45.6888,-23.2848 45.6888,-23.2848 v 0 c -0.012,-3.6599 0,-1.8165 -0.029,-5.5304 -0.024,-7.7464 0.043,-15.4931 0.2545,-23.237 0.4738,-13.7949 1.348,-27.5764 3.1361,-41.2707 0.8355,-9.5618 0.258,-19.15268 0.2682,-28.74319 -0.1198,-15.97674 -0.3998,-31.95221 -0.2678,-47.93028 0.055,-15.20074 -0.018,-30.40918 0.5969,-45.60053 0,0 -45.714,23.29248 -45.714,23.29248 z" />
    <path
       style="fill:#000000"
       id="path903"
       d="m 1626.4618,17.858313 c 38.4761,-1.146335 76.9681,-1.136523 115.451,-2.025899 23.9278,-0.633627 47.8575,-1.233506 71.7922,-1.53343 12.3617,-0.44506 24.5964,1.691898 36.7607,3.587203 9.095,1.65023 18.0734,4.010672 27.3333,4.455904 6.2388,-0.349188 11.7632,-3.491825 17.3464,-6.001899 3.8394,-1.574127 7.8998,-1.491647 11.9632,-1.542269 0,0 41.2731,-29.673673 41.2731,-29.673673 v 0 c -4.2761,-0.466353 -8.4636,-0.764435 -12.7626,-0.316334 -5.8841,1.541016 -11.04,4.986132 -16.6262,7.3406387 -9.1405,1.3104719 -18.2802,-2.0722847 -27.2884,-3.2921957 -12.3229,-1.792816 -24.6958,-4.70943 -37.1817,-4.390293 -24.7492,1.073674 -49.4847,2.457143 -74.2431,3.321134 -37.5155,1.302481 -75.0468,1.716655 -112.5645,0.09877 0,0 -41.2534,29.972345 -41.2534,29.972345 z" />
    <path
       style="fill:#000000"
       id="path907"
       d="m 1901.9031,19.728294 c 0.4976,12.290309 0.4155,24.594062 0.3067,36.891033 -0.1342,11.039318 -0.074,22.076468 0.01,33.115569 -0.1114,12.317924 0.058,24.635234 0.025,36.953064 0.028,11.92103 0,23.84076 -0.1553,35.76078 0.013,7.68798 -0.079,15.37528 -0.1708,23.06251 0.048,8.22673 0.1732,16.45488 0.2366,24.68272 0.8645,9.74126 -0.643,18.9506 -3.5966,28.15928 -0.4576,0.86891 -0.9151,1.73782 -1.3726,2.60673 0,0 46.5168,-21.40906 46.5168,-21.40906 v 0 c 0.3436,-1.03121 0.6872,-2.06243 1.0307,-3.09365 2.5469,-9.6033 2.9334,-19.38113 2.6176,-29.29177 0.063,-8.3082 0.1884,-16.61674 0.2366,-24.92384 -0.092,-7.6292 -0.1842,-15.25848 -0.1708,-22.88845 -0.1595,-11.86725 -0.183,-23.73422 -0.1553,-35.6025 -0.033,-12.326222 0.136,-24.651928 0.025,-36.978244 0.082,-11.042015 0.1434,-22.08209 0.01,-33.124306 -0.1107,-12.401276 -0.1832,-24.8087426 0.3067,-37.2036202 0,0 -45.6969,23.2837542 -45.6969,23.2837542 z" />
    <text
       xml:space="preserve"
       id="text4561"
       style="fill:black;fill-opacity:1;line-height:1.25;stroke:none;font-family:sans-serif;font-style:normal;font-weight:normal;font-size:40px;white-space:pre;shape-inside:url(#rect4563)" />
    <text
       xml:space="preserve"
       id="text8989"
       style="fill:black;fill-opacity:1;line-height:1.25;stroke:none;font-family:sans-serif;font-style:normal;font-weight:normal;font-size:40px;white-space:pre;shape-inside:url(#rect8991)" />
    <text
       xml:space="preserve"
       style="font-style:normal;font-variant:normal;font-weight:normal;font-stretch:normal;font-size:341.333px;line-height:1.25;font-family:sans-serif;-inkscape-font-specification:'sans-serif, Normal';font-variant-ligatures:normal;font-variant-caps:normal;font-variant-numeric:normal;font-variant-east-asian:normal;fill:#000000;fill-opacity:1;stroke:none"
       x="412.63895"
       y="677.81476"
       id="text14057"><tspan
         id="tspan14055"
         x="412.63895"
         y="677.81476">SPLASH</tspan></text>
    <text
       xml:space="preserve"
       id="text17509"
       style="fill:black;fill-opacity:1;line-height:1.25;stroke:none;font-family:sans-serif;font-style:normal;font-weight:normal;font-size:40px;white-space:pre;shape-inside:url(#rect17511)" />
  </g>
</svg>
